<svg id="Layer_1" data-name="Layer 1" xmlns="http://www.w3.org/2000/svg" viewBox="0 0 383.36 58.61"><defs><style>.cls-1{fill:#1c1c1c;}</style></defs><title>myColorado</title><path class="cls-1" d="M222.46,12.32c10.38,0,18,7.46,17.84,17.31-.15,7.84-5.42,14.1-13.48,16C218.23,47.74,209.3,43.61,206,36,200.9,24.43,209.35,12.27,222.46,12.32Zm-9.13,16.94a9.21,9.21,0,0,0,9.09,9.52c5.19,0,9.15-4.25,9.08-9.76a9.21,9.21,0,0,0-9.2-9.39C217.24,19.69,213.31,23.92,213.33,29.26Z"/><path class="cls-1" d="M304.15,39v6.45c-3.2,0-6.43.57-9.54-.35-1.23-.37-2.15-1.78-3.37-2.86a11.47,11.47,0,0,1-10.57,3.86c-4-.52-7.17-2.34-8.58-6.26-1.33-3.71-.82-7.26,2.07-10.14,2.32-2.32,5.36-3.29,8.52-3.77,2.78-.43,5.59-.62,8.36-.91.68-3.11-1-5.52-4.14-5.65a18.22,18.22,0,0,0-5.6.86,33.46,33.46,0,0,0-4.61,2.11c-1-1.86-2.1-3.76-3.34-6,1.6-.83,2.93-1.62,4.34-2.24a21.28,21.28,0,0,1,13.91-1.17,10.2,10.2,0,0,1,8.15,9.25c.37,4.45.25,8.94.36,13.42,0,1,.09,1.94.14,3.05Zm-13-8.23a16,16,0,0,0-8.81,1.5,3.69,3.69,0,0,0-2,4.37A3.64,3.64,0,0,0,284,39.4C288.21,39.7,291.77,35.55,291.15,30.73Z"/><path class="cls-1" d="M13.7,38.69l4.12.24v6.34H.36V39l4.23-.27V19.77L0,19.38V13.07c3.29,0,6.5-.1,9.71,0,2.44.11,3.07,2.15,3.68,4.46,2.93-3,5.92-5.2,10.07-5.27S30.79,14,33.2,18.41a8.57,8.57,0,0,1,.92-1.69,12.72,12.72,0,0,1,11.65-4.31,8.49,8.49,0,0,1,7.57,6,22.81,22.81,0,0,1,1.08,6.31c.17,3.81,0,7.63.06,11.44,0,.81.08,1.61.13,2.56l4.25.26v6.34h-13c0-.85-.14-1.65-.14-2.45,0-5.14,0-10.28,0-15.42,0-.75,0-1.49,0-2.24-.1-1.85-.26-3.76-2.24-4.64a5.52,5.52,0,0,0-5.85,1,9.28,9.28,0,0,0-3.5,6.9c-.23,3.29-.06,6.61-.06,10.2l4.32.3v6.36H25.25V40.56c0-5.05,0-10.11,0-15.17,0-1.95-.2-3.88-2.24-4.89-1.74-.87-4.45-.2-6.21,1.43a9.27,9.27,0,0,0-3,6.11C13.51,31.48,13.7,35,13.7,38.69Z"/><path class="cls-1" d="M326.66.93H340V38.57l4.13.42v6.24a72.47,72.47,0,0,1-9.09-.12c-1.29-.16-2.42-1.64-3.83-2.67A12.41,12.41,0,0,1,324,46a13.53,13.53,0,0,1-15.22-9.28,21.53,21.53,0,0,1,.2-15.54,14.17,14.17,0,0,1,20.93-6.66c.32.22.66.42,1.27.79V7.49l-4.53-.33ZM316.13,30.14a29.14,29.14,0,0,0,1.42,4.72,6.5,6.5,0,0,0,6.62,3.94,6.81,6.81,0,0,0,6.51-4.56,12.73,12.73,0,0,0-.49-10.8,7,7,0,0,0-11.51-1.38C316.8,24.08,316.3,26.53,316.13,30.14Z"/><path class="cls-1" d="M140.52,15.29h-7.83c-.07-.78-.16-1.42-.18-2.06-.08-2.78-.7-3.72-3.26-4.59A16.74,16.74,0,0,0,118,8.57a13.08,13.08,0,0,0-8.31,8.33c-2.61,7.46.12,16,6.5,19.65,4.74,2.75,9.74,2.41,14.69.62a3.34,3.34,0,0,0,2.27-3.51c0-.82,0-1.63,0-2.64h7.54c2.23,5.77.27,10.86-5.39,12.91-9.59,3.48-19,3.55-27.37-3.13-7.48-5.94-10.21-16.31-7-25.68A23,23,0,0,1,121.79,0a30.87,30.87,0,0,1,13.37,2.46c3.63,1.57,5.84,4,5.38,8.26A45.37,45.37,0,0,0,140.52,15.29Z"/><path class="cls-1" d="M63.2,19.7l-3.42-.31V13.12H75.71v6.16l-3.31.59c1.94,5.38,3.82,10.6,5.71,15.81h.75l5.68-15.87-3.34-.48V13.15H96.71v6.2l-3.6.38c-1.62,4.12-3.24,8.27-4.87,12.42C86,38,83.7,43.89,81.38,49.74a14,14,0,0,1-21,6.34l2.57-5.95a31.44,31.44,0,0,0,4.69,1.2A5.83,5.83,0,0,0,74,46.56a2.66,2.66,0,0,0-.16-1.42q-5-12.21-10-24.38A7.47,7.47,0,0,0,63.2,19.7Z"/><path class="cls-1" d="M365.51,12.31c12,.08,20.4,10.64,17.15,21.59C380.22,42.08,372.17,47.12,363,46c-6.37-.77-11.35-3.88-14-9.84a16.15,16.15,0,0,1,2.07-17.35C354.65,14.21,359.7,12.28,365.51,12.31Zm8.91,17c0-5.44-3.79-9.62-8.86-9.7a9.3,9.3,0,0,0-9.32,9.57,9.28,9.28,0,0,0,9.06,9.58C370.44,38.82,374.39,34.73,374.42,29.33Z"/><path class="cls-1" d="M163.46,12.32c12.2,0,20.26,9.37,17.89,20.5-1.54,7.23-6.4,11.39-13.53,13-8.36,1.83-16.94-2.23-20.27-9.5A16.86,16.86,0,0,1,161.69,12.4C162.44,12.34,163.19,12.33,163.46,12.32Zm-8.6,17c0,5.4,3.94,9.5,9.08,9.49a9.36,9.36,0,0,0,9.12-9.54A9.38,9.38,0,0,0,164,19.63C158.79,19.6,154.84,23.77,154.86,29.29Z"/><path class="cls-1" d="M269.19,12.77v8a11.24,11.24,0,0,1-1.25.19c-5.18.1-7.76,2-9.29,7a27,27,0,0,0-.25,10.77l4.07.25v6.32H245V39l4.26-.38V19.8l-4.63-.45V13.1c3.34,0,6.63-.11,9.92.05a3.15,3.15,0,0,1,3,2.86c.1.56.26,1.11.5,2.13C261,14.32,264.31,11.87,269.19,12.77Z"/><path class="cls-1" d="M187.77,7.41l-4.57-.23V1h13.44c.05.87.13,1.74.13,2.61q0,15,0,30.08c0,4.56,0,4.56,4.46,5.11v6.35c-5.44,1.77-10.82-.25-12.35-4.78a18.29,18.29,0,0,1-.84-5.61c-.09-8.12,0-16.24-.05-24.36C188,9.41,187.86,8.46,187.77,7.41Z"/></svg>